<?xml version="1.0" encoding="UTF-8"?>
<svg xmlns="http://www.w3.org/2000/svg" xmlns:xlink="http://www.w3.org/1999/xlink" viewBox="0 0 50 50" width="50px" height="50px">
<g id="surface14050681">
<path style=" stroke:none;fill-rule:nonzero;fill:rgb(92.941177%,93.333334%,93.333334%);fill-opacity:1;" d="M 4.25 50 C 1.902344 50 0 48.097656 0 45.75 L 0 4.25 C 0 1.902344 1.902344 0 4.25 0 L 45.75 0 C 48.097656 0 50 1.902344 50 4.25 L 50 45.75 C 50 48.097656 48.097656 50 45.75 50 Z M 44.75 49 C 47.097656 49 49 47.097656 49 44.75 L 49 5.25 C 49 2.902344 47.097656 1 44.75 1 L 5.25 1 C 2.902344 1 1 2.902344 1 5.25 L 1 44.75 C 1 47.097656 2.902344 49 5.25 49 Z M 44.75 49 "/>
<path style=" stroke:none;fill-rule:nonzero;fill:rgb(3.921569%,52.156866%,79.607844%);fill-opacity:1;" d="M 21.863281 7.363281 C 14.34375 7.363281 8.261719 13.445312 8.261719 20.960938 C 8.261719 28.480469 14.34375 34.5625 21.863281 34.5625 C 24.546875 34.5625 27.03125 33.773438 29.136719 32.4375 L 38.960938 42.261719 L 42.363281 38.863281 L 32.664062 29.1875 C 34.40625 26.898438 35.460938 24.066406 35.460938 20.960938 C 35.460938 13.445312 29.382812 7.363281 21.863281 7.363281 Z M 21.863281 10.5625 C 27.621094 10.5625 32.261719 15.203125 32.261719 20.960938 C 32.261719 26.722656 27.621094 31.363281 21.863281 31.363281 C 16.101562 31.363281 11.460938 26.722656 11.460938 20.960938 C 11.460938 15.203125 16.101562 10.5625 21.863281 10.5625 Z M 21.863281 10.5625 "/>
</g>
</svg>
